<svg xmlns="http://www.w3.org/2000/svg" viewBox="0 0 980 856" width="980" height="856" role="img" aria-labelledby="t d">
<title id="t">One script, five chunks</title>
<desc id="d">A listing of the education script with each line tinted by the chunk it belongs to, and each chunk named down the right hand side. The five chunks are: attach the packages, read the spreadsheet, prepare the education rows, prepare the population rows, and join then plot. The package colour appears in five separate places down the listing, because the library calls are scattered through the script rather than gathered at the top.</desc>
<defs><style>
 .code{font-family:"DejaVu Sans Mono",Menlo,Consolas,monospace;font-size:26px}
 .head{font-family:"Helvetica Neue",Helvetica,Arial,sans-serif;font-size:19px;font-weight:bold}
 .desc{font-family:"Helvetica Neue",Helvetica,Arial,sans-serif;font-size:16px}
 .pill{font-family:"Helvetica Neue",Helvetica,Arial,sans-serif;font-size:15px;font-weight:bold}
 .lead{fill:none;stroke-width:2.1}
</style>
<marker id="a-name" markerWidth="7" markerHeight="7" refX="5.5" refY="3" orient="auto"><path d="M0,0 L6,3 L0,6 Z" fill="#178665"/></marker>
<marker id="a-fn" markerWidth="7" markerHeight="7" refX="5.5" refY="3" orient="auto"><path d="M0,0 L6,3 L0,6 Z" fill="#736EB2"/></marker>
<marker id="a-args" markerWidth="7" markerHeight="7" refX="5.5" refY="3" orient="auto"><path d="M0,0 L6,3 L0,6 Z" fill="#C25502"/></marker>
<marker id="a-default" markerWidth="7" markerHeight="7" refX="5.5" refY="3" orient="auto"><path d="M0,0 L6,3 L0,6 Z" fill="#9B6E1B"/></marker>
<marker id="a-body" markerWidth="7" markerHeight="7" refX="5.5" refY="3" orient="auto"><path d="M0,0 L6,3 L0,6 Z" fill="#666666"/></marker>
<marker id="a-return" markerWidth="7" markerHeight="7" refX="5.5" refY="3" orient="auto"><path d="M0,0 L6,3 L0,6 Z" fill="#E0197F"/></marker>
<marker id="a-good" markerWidth="7" markerHeight="7" refX="5.5" refY="3" orient="auto"><path d="M0,0 L6,3 L0,6 Z" fill="#178665"/></marker>
<marker id="a-bad" markerWidth="7" markerHeight="7" refX="5.5" refY="3" orient="auto"><path d="M0,0 L6,3 L0,6 Z" fill="#E0197F"/></marker>
<marker id="a-warn" markerWidth="7" markerHeight="7" refX="5.5" refY="3" orient="auto"><path d="M0,0 L6,3 L0,6 Z" fill="#C25502"/></marker>
<marker id="a-muted" markerWidth="7" markerHeight="7" refX="5.5" refY="3" orient="auto"><path d="M0,0 L6,3 L0,6 Z" fill="#666666"/></marker>
</defs>
<rect width="980" height="856" fill="#ffffff"/>
<rect x="60" y="49" width="500" height="34" rx="4" fill="#D95F02" opacity="0.16"/>
<rect x="60" y="83" width="500" height="34" rx="4" fill="#D95F02" opacity="0.16"/>
<rect x="60" y="151" width="500" height="34" rx="4" fill="#1B9E77" opacity="0.16"/>
<rect x="60" y="185" width="500" height="34" rx="4" fill="#1B9E77" opacity="0.16"/>
<rect x="60" y="219" width="500" height="34" rx="4" fill="#1B9E77" opacity="0.16"/>
<rect x="60" y="287" width="500" height="34" rx="4" fill="#D95F02" opacity="0.16"/>
<rect x="60" y="321" width="500" height="34" rx="4" fill="#D95F02" opacity="0.16"/>
<rect x="60" y="355" width="500" height="34" rx="4" fill="#7570B3" opacity="0.16"/>
<rect x="60" y="389" width="500" height="34" rx="4" fill="#7570B3" opacity="0.16"/>
<rect x="60" y="423" width="500" height="34" rx="4" fill="#7570B3" opacity="0.16"/>
<rect x="60" y="491" width="500" height="34" rx="4" fill="#A6761D" opacity="0.16"/>
<rect x="60" y="525" width="500" height="34" rx="4" fill="#A6761D" opacity="0.16"/>
<rect x="60" y="559" width="500" height="34" rx="4" fill="#A6761D" opacity="0.16"/>
<rect x="60" y="627" width="500" height="34" rx="4" fill="#D95F02" opacity="0.16"/>
<rect x="60" y="661" width="500" height="34" rx="4" fill="#E7298A" opacity="0.16"/>
<rect x="60" y="695" width="500" height="34" rx="4" fill="#E7298A" opacity="0.16"/>
<rect x="60" y="763" width="500" height="34" rx="4" fill="#D95F02" opacity="0.16"/>
<rect x="60" y="797" width="500" height="34" rx="4" fill="#E7298A" opacity="0.16"/>
<text class="code" x="96" y="66" fill="#1b2733">library(readxl)</text>
<text class="code" x="96" y="100" fill="#1b2733">library(janitor)</text>
<text class="code" x="96" y="168" fill="#1b2733">data &lt;- read_excel(...)</text>
<text class="code" x="96" y="202" fill="#1b2733">the_names &lt;- names(data)</text>
<text class="code" x="96" y="236" fill="#1b2733">the_names[1] &lt;- "state"</text>
<text class="code" x="96" y="304" fill="#1b2733">library(dplyr)</text>
<text class="code" x="96" y="338" fill="#1b2733">library(tidyr)</text>
<text class="code" x="96" y="372" fill="#1b2733">data_studying &lt;- data |&gt;</text>
<text class="code" x="127" y="406" fill="#1b2733">slice(4:11) |&gt;</text>
<text class="code" x="127" y="440" fill="#1b2733">pivot_longer(...)</text>
<text class="code" x="96" y="508" fill="#1b2733">data_population &lt;- data |&gt;</text>
<text class="code" x="127" y="542" fill="#1b2733">slice(24:31) |&gt;</text>
<text class="code" x="127" y="576" fill="#1b2733">pivot_longer(...)</text>
<text class="code" x="96" y="644" fill="#1b2733">library(forcats)</text>
<text class="code" x="96" y="678" fill="#1b2733">data_joined &lt;- ... |&gt;</text>
<text class="code" x="127" y="712" fill="#1b2733">left_join(...)</text>
<text class="code" x="96" y="780" fill="#1b2733">library(ggplot2)</text>
<text class="code" x="96" y="814" fill="#1b2733">ggplot(data_joined, ...)</text>
<rect x="600" y="48" width="185.6" height="26" rx="13" fill="#D95F02" opacity="0.12"/>
<text class="pill" x="692.8" y="66" text-anchor="middle" fill="#C25502">Attach the packages</text>
<rect x="600" y="150" width="194" height="26" rx="13" fill="#1B9E77" opacity="0.12"/>
<text class="pill" x="697" y="168" text-anchor="middle" fill="#178665">Read the spreadsheet</text>
<rect x="600" y="354" width="210.8" height="26" rx="13" fill="#7570B3" opacity="0.12"/>
<text class="pill" x="705.4" y="372" text-anchor="middle" fill="#736EB2">Prepare education rows</text>
<rect x="600" y="490" width="219.2" height="26" rx="13" fill="#A6761D" opacity="0.12"/>
<text class="pill" x="709.6" y="508" text-anchor="middle" fill="#9B6E1B">Prepare population rows</text>
<rect x="600" y="660" width="194" height="26" rx="13" fill="#E7298A" opacity="0.12"/>
<text class="pill" x="697" y="678" text-anchor="middle" fill="#E0197F">Join it up, and plot</text>
<text class="head" x="600" y="760" fill="#666666">Five ideas</text>
<text class="desc" x="600" y="784" fill="#4a5160">One colour, five places.</text>
</svg>
